<?xml version="1.0" standalone="no"?>
<!DOCTYPE svg PUBLIC "-//W3C//DTD SVG 20010904//EN"
 "http://www.w3.org/TR/2001/REC-SVG-20010904/DTD/svg10.dtd">
<svg version="1.0" xmlns="http://www.w3.org/2000/svg"
 width="1920.000000pt" height="893.000000pt" viewBox="0 0 1920.000000 893.000000"
 preserveAspectRatio="xMidYMid meet">

<g transform="translate(0.000000,893.000000) scale(0.100000,-0.100000)"
fill="#000000" stroke="none">
<path d="M0 4465 l0 -4465 9600 0 9600 0 0 4465 0 4465 -9600 0 -9600 0 0
-4465z m523 4002 c15 -12 27 -31 27 -41 0 -15 5 -16 31 -11 30 7 31 6 27 -19
-4 -20 -1 -26 13 -26 26 0 24 -12 -15 -105 -22 -53 -41 -84 -57 -92 -55 -28
-213 -92 -217 -88 -2 2 2 28 9 57 7 29 13 60 14 68 5 37 27 70 56 86 25 12 29
18 18 25 -10 7 -24 -2 -51 -33 l-37 -42 -11 30 c-7 16 -13 50 -13 77 -2 35 -5
46 -15 42 -8 -3 -12 0 -10 7 3 9 179 87 199 88 3 0 18 -10 32 -23z m17406 -26
c8 -5 15 -19 16 -30 2 -19 0 -20 -15 -6 -23 21 -83 19 -103 -3 -9 -10 -20 -41
-23 -68 -4 -27 -13 -61 -21 -76 l-14 -28 111 0 111 0 -14 28 c-8 15 -17 50
-20 77 l-7 50 20 -24 c11 -13 20 -32 20 -43 0 -11 7 -35 16 -54 29 -60 21 -64
-126 -64 -146 0 -154 4 -127 63 8 17 19 54 23 82 9 66 47 105 101 105 21 0 44
-4 52 -9z m826 -68 c8 -10 15 -24 15 -30 0 -20 -34 -15 -48 7 -14 24 -45 26
-62 5 -15 -18 2 -45 29 -45 9 0 31 -9 49 -20 63 -39 32 -110 -48 -110 -20 0
-46 7 -58 16 -28 19 -30 54 -2 54 11 0 20 -6 20 -14 0 -27 67 -37 76 -11 8 21
-11 41 -45 48 -34 7 -71 43 -71 68 0 10 12 27 28 39 32 26 95 23 117 -7z
m-17967 -76 l3 -87 44 0 c33 0 45 -4 45 -15 0 -12 -14 -15 -65 -15 l-65 0 0
106 c0 95 2 105 18 102 14 -3 17 -17 20 -91z m160 81 c-7 -19 -38 -22 -38 -4
0 10 9 16 21 16 12 0 19 -5 17 -12z m472 -1 c65 -23 83 -116 31 -168 -26 -25
-37 -29 -85 -29 l-56 0 0 98 c0 54 3 102 7 105 10 11 64 7 103 -6z m-472 -120
c3 -72 1 -77 -18 -77 -18 0 -20 6 -20 81 0 71 2 80 18 77 14 -3 17 -16 20 -81z
m80 26 l19 -58 17 53 c16 47 38 73 51 60 3 -2 -7 -39 -21 -81 -22 -64 -29 -77
-47 -77 -18 0 -27 13 -48 74 -15 41 -24 77 -21 80 16 17 32 0 50 -51z m237 24
c30 -43 20 -57 -40 -57 -56 0 -67 -8 -40 -30 9 -8 29 -9 57 -5 l43 7 -19 -21
c-23 -25 -72 -28 -104 -5 -28 20 -31 93 -4 116 35 31 83 29 107 -5z m375 -5
c26 -32 25 -63 -1 -96 -42 -54 -129 -21 -129 49 0 78 82 108 130 47z m168 15
c15 -12 16 -37 0 -37 -6 0 -19 7 -29 16 -38 34 -84 -37 -47 -74 15 -15 48 -16
48 -2 0 6 9 10 20 10 24 0 25 -8 3 -32 -25 -28 -77 -24 -102 8 -25 32 -27 62
-5 92 27 39 76 47 112 19z m137 11 c14 -6 25 -17 25 -25 0 -16 -14 -17 -40 -1
-15 9 -22 10 -31 1 -15 -15 -3 -33 23 -33 24 0 58 -27 58 -46 0 -37 -67 -57
-111 -34 -35 19 -21 32 27 24 56 -8 59 12 5 30 -62 20 -67 71 -10 87 13 4 25
7 26 8 1 1 14 -4 28 -11z m15983 -178 c-2 -11 -16 -15 -48 -15 -32 0 -46 4
-48 15 -2 12 8 15 48 15 40 0 50 -3 48 -15z m-13561 -1460 c29 -80 53 -149 53
-153 0 -5 -14 -7 -32 -5 -27 2 -34 9 -42 36 -9 31 -10 32 -67 32 -57 0 -58 0
-69 -35 -10 -31 -16 -35 -45 -35 l-33 0 17 48 c10 26 35 96 56 155 l38 108 36
-3 36 -3 52 -145z m151 -7 l3 -153 -31 0 -30 0 0 156 0 155 28 -3 27 -3 3
-152z m110 0 l3 -153 -31 0 -30 0 0 156 0 155 28 -3 27 -3 3 -152z m362 2 l0
-155 -30 0 c-16 0 -30 5 -30 10 0 6 -11 3 -25 -6 -51 -33 -117 9 -131 83 -8
45 11 108 39 128 26 18 88 20 105 3 9 -9 12 0 12 40 0 51 1 52 30 52 l30 0 0
-155z m1760 105 c0 -25 4 -30 25 -30 18 0 25 -5 25 -20 0 -15 -7 -20 -25 -20
-26 0 -26 -1 -23 -72 3 -67 5 -73 26 -76 13 -2 22 -10 22 -22 0 -38 -77 -30
-97 10 -7 14 -13 55 -13 93 0 53 -3 67 -15 67 -8 0 -15 9 -15 20 0 11 7 20 15
20 9 0 15 9 15 23 0 13 3 27 7 30 3 4 17 7 30 7 19 0 23 -5 23 -30z m5540 -55
l0 -45 45 0 c38 0 45 -3 45 -20 0 -17 -7 -20 -45 -20 l-45 0 0 -45 c0 -38 -3
-45 -20 -45 -17 0 -20 7 -20 45 l0 45 -45 0 c-38 0 -45 3 -45 20 0 17 7 20 45
20 l45 0 0 45 c0 38 3 45 20 45 17 0 20 -7 20 -45z m-7067 -1 c50 -50 44 -156
-10 -192 -40 -26 -106 -22 -137 7 -54 50 -53 148 1 191 39 31 112 28 146 -6z
m253 3 c18 -16 25 -30 21 -40 -9 -23 -39 -21 -60 3 -32 38 -74 16 -84 -42 -11
-70 45 -114 84 -68 21 24 51 26 60 4 8 -21 -34 -63 -72 -70 -19 -3 -47 1 -69
10 -70 29 -87 138 -30 197 37 39 109 41 150 6z m124 -52 c0 -61 4 -79 20 -95
20 -20 47 -18 62 4 4 6 8 46 8 89 l0 77 30 0 30 0 0 -115 0 -115 -30 0 c-17 0
-30 5 -30 12 0 9 -3 9 -12 0 -7 -7 -31 -12 -53 -12 -65 0 -78 22 -83 136 l-4
94 31 0 31 0 0 -75z m260 63 c0 -9 3 -9 12 0 17 17 74 15 93 -4 15 -15 17 -15
34 0 18 16 77 22 97 8 24 -16 34 -55 34 -136 l0 -86 -30 0 -30 0 0 85 c0 72
-3 86 -18 94 -14 7 -25 6 -40 -5 -19 -13 -22 -25 -22 -95 0 -78 0 -79 -25 -79
-25 0 -25 1 -25 79 0 59 -4 84 -16 95 -8 9 -19 16 -24 16 -5 0 -16 -7 -24 -16
-12 -11 -16 -36 -16 -95 l0 -79 -30 0 -30 0 0 115 0 115 30 0 c17 0 30 -5 30
-12z m481 2 c24 -13 49 -61 49 -95 0 -25 -1 -25 -80 -25 -84 0 -95 -7 -63 -42
19 -22 51 -23 73 -3 18 17 60 9 60 -11 0 -18 -38 -43 -76 -50 -78 -14 -142 54
-131 139 8 59 49 97 105 97 24 0 52 -5 63 -10z m149 -2 c0 -9 3 -9 12 0 14 14
72 16 98 2 26 -14 40 -63 40 -146 l0 -74 -30 0 -30 0 0 71 c0 81 -11 109 -43
109 -38 0 -47 -19 -47 -102 l0 -78 -30 0 -30 0 0 115 0 115 30 0 c17 0 30 -5
30 -12z m508 -15 l26 -27 -27 -9 c-22 -7 -31 -6 -41 8 -16 23 -61 16 -61 -9 0
-14 12 -22 47 -31 60 -15 78 -30 78 -66 0 -50 -56 -85 -122 -74 -44 8 -88 52
-66 67 21 13 45 9 52 -8 8 -21 70 -15 74 8 2 12 -8 20 -40 28 -65 17 -88 36
-88 70 0 46 31 70 90 70 42 0 56 -5 78 -27z m5627 7 c22 -24 35 -26 35 -5 0 8
7 15 15 15 8 0 15 -5 15 -11 0 -7 8 -18 18 -25 16 -12 16 -13 0 -19 -23 -9
-26 -75 -3 -75 8 0 15 9 15 19 0 20 18 31 51 31 10 0 19 5 19 10 0 7 -13 8
-35 4 -36 -6 -44 3 -23 24 17 17 64 15 82 -4 10 -9 16 -33 16 -58 0 -42 -1
-44 -37 -49 -20 -4 -43 -2 -51 2 -9 5 -23 4 -33 -2 -26 -16 -49 8 -49 50 0 36
-18 63 -42 63 -8 0 -19 5 -25 11 -7 7 -19 9 -28 5 -14 -5 -15 -9 -5 -21 7 -8
19 -15 28 -15 22 0 52 -30 52 -51 0 -10 -11 -26 -25 -35 -34 -22 -89 -8 -93
24 -4 25 22 31 32 7 7 -18 28 -19 44 -3 9 9 3 17 -30 33 -31 14 -44 27 -46 44
-7 48 68 70 103 31z m645 0 c0 -14 7 -20 22 -20 31 0 58 -29 58 -62 0 -37 -35
-72 -63 -64 -12 3 -30 6 -39 6 -16 0 -18 11 -18 80 0 73 2 80 20 80 13 0 20
-7 20 -20z m128 -63 c3 -72 1 -77 -18 -77 -18 0 -20 6 -20 81 0 71 2 80 18 77
14 -3 17 -16 20 -81z m302 44 c4 -31 6 -33 19 -18 7 10 23 17 34 17 20 0 20 0
-1 -23 -27 -29 -27 -32 -1 -68 18 -26 19 -29 3 -29 -10 0 -26 7 -36 17 -17 15
-18 15 -18 0 0 -10 -8 -17 -20 -17 -18 0 -20 7 -20 81 0 71 2 80 18 77 11 -2
19 -15 22 -37z m248 -42 l3 -76 -38 -6 c-52 -9 -83 13 -83 58 0 40 22 65 56
65 18 0 24 5 24 21 0 14 5 19 18 17 14 -3 17 -16 20 -79z m-975 51 c19 -23 22
-40 7 -40 -15 0 -12 -68 3 -73 9 -3 9 -8 1 -17 -9 -9 -17 -9 -33 -1 -16 9 -21
21 -21 52 0 36 -2 40 -22 37 -19 -2 -24 -10 -26 -45 -2 -29 -8 -43 -18 -43
-11 0 -14 14 -14 60 l0 60 40 0 c29 0 40 4 40 15 0 21 22 19 43 -5z m1837 9
c0 -7 8 -18 18 -25 16 -12 16 -13 0 -19 -23 -9 -26 -75 -3 -75 20 0 19 -19 0
-26 -25 -10 -45 16 -45 57 0 22 -4 39 -10 39 -5 0 -10 7 -10 15 0 8 5 15 10
15 6 0 10 7 10 15 0 8 7 15 15 15 8 0 15 -5 15 -11z m-1666 -35 c10 -9 16 -33
16 -58 0 -42 -1 -44 -36 -49 -46 -8 -74 7 -74 37 0 24 17 36 51 36 10 0 19 5
19 10 0 7 -13 8 -35 4 -36 -6 -44 3 -23 24 17 17 64 15 82 -4z m360 0 c10 -9
16 -33 16 -58 0 -42 -1 -44 -36 -49 -46 -8 -74 7 -74 37 0 24 17 36 51 36 10
0 19 5 19 10 0 7 -13 8 -35 4 -36 -6 -44 3 -23 24 17 17 64 15 82 -4z m124 4
c18 -18 16 -108 -2 -108 -10 0 -16 14 -18 42 -2 31 -8 44 -20 46 -15 3 -18 -4
-18 -42 0 -39 -3 -46 -20 -46 -18 0 -20 7 -20 60 l0 60 43 0 c24 0 48 -5 55
-12z m432 -8 c11 -11 20 -29 20 -40 0 -24 -42 -70 -65 -70 -25 0 -55 38 -55
69 0 57 60 81 100 41z m125 4 c13 -13 14 -19 4 -25 -8 -4 -19 -3 -26 3 -20 16
-43 1 -43 -27 0 -27 31 -48 38 -27 2 7 13 12 24 12 26 0 18 -21 -14 -39 -23
-13 -29 -13 -52 2 -21 14 -26 25 -26 57 0 27 6 42 18 49 26 15 59 13 77 -5z
m63 -37 c4 -63 26 -58 30 6 3 39 6 47 23 47 17 0 19 -7 19 -60 l0 -60 -32 -1
c-71 -3 -78 4 -78 74 0 41 3 48 18 45 13 -2 18 -15 20 -51z m252 32 c6 -10 10
-36 10 -58 0 -34 -3 -41 -20 -41 -17 0 -20 7 -20 45 0 33 -4 45 -15 45 -11 0
-15 -12 -15 -45 0 -33 -4 -45 -14 -45 -10 0 -16 14 -18 43 -2 29 -8 42 -18 42
-10 0 -16 -13 -18 -42 -2 -29 -8 -43 -18 -43 -11 0 -14 14 -14 60 l0 59 75 -1
c62 0 77 -4 85 -19z m118 9 c5 -7 13 -23 16 -35 7 -21 4 -23 -33 -23 -23 0
-41 -4 -41 -9 0 -17 21 -23 36 -10 12 10 17 10 27 0 9 -10 8 -15 -7 -27 -27
-19 -52 -18 -76 6 -24 24 -26 67 -3 92 18 21 66 24 81 6z m132 -8 c5 -10 10
-37 10 -59 0 -34 -3 -41 -20 -41 -17 0 -20 7 -20 46 0 38 -3 45 -17 42 -13 -2
-19 -15 -21 -46 -2 -28 -8 -42 -18 -42 -11 0 -14 14 -14 59 l0 58 45 1 c34 1
47 -3 55 -18z m-9086 -1381 c27 -22 35 -49 13 -49 -7 0 -20 9 -30 20 -20 23
-46 26 -72 6 -23 -17 -27 -85 -6 -110 19 -23 68 -21 81 4 13 23 40 27 40 5 0
-54 -101 -75 -145 -30 -40 39 -32 127 14 162 25 19 76 15 105 -8z m96 -19 l0
-40 45 0 45 0 0 40 c0 33 3 40 20 40 19 0 20 -7 20 -100 0 -93 -1 -100 -20
-100 -17 0 -20 7 -20 45 l0 45 -45 0 -45 0 0 -45 c0 -38 -3 -45 -20 -45 -19 0
-20 7 -20 100 0 93 1 100 20 100 17 0 20 -7 20 -40z m290 -40 c44 -121 44
-120 22 -120 -13 0 -22 9 -26 25 -5 21 -12 25 -45 25 -33 0 -40 -4 -45 -25 -4
-17 -13 -25 -27 -25 -16 0 -19 4 -14 18 4 9 17 46 30 82 35 100 36 101 58 98
14 -2 27 -22 47 -78z m190 65 c0 -10 -10 -15 -30 -15 l-30 0 0 -85 c0 -78 -2
-85 -20 -85 -18 0 -20 7 -20 85 l0 85 -30 0 c-20 0 -30 5 -30 15 0 12 16 15
80 15 64 0 80 -3 80 -15z m-1255 -75 l59 -60 -62 0 -62 0 0 60 c0 33 1 60 3
60 1 0 29 -27 62 -60z m-20 -200 c0 -12 -20 -16 -109 -18 -106 -3 -136 4 -121
27 4 8 44 11 118 9 92 -2 112 -6 112 -18z m0 -50 c0 -12 -20 -16 -109 -18
-106 -3 -136 4 -121 27 4 8 44 11 118 9 92 -2 112 -6 112 -18z m0 -50 c0 -12
-20 -16 -109 -18 -106 -3 -136 4 -121 27 4 8 44 11 118 9 92 -2 112 -6 112
-18z m-100 -50 c0 -11 -15 -16 -59 -18 -59 -3 -84 7 -71 28 11 18 130 9 130
-10z m763 -22 c7 -7 12 -19 12 -27 0 -11 -5 -9 -16 7 -18 26 -56 29 -75 6 -20
-24 -16 -84 6 -100 26 -19 41 -18 66 7 26 26 34 20 13 -9 -21 -30 -77 -30 -98
0 -21 29 -20 87 1 110 18 20 73 24 91 6z m632 -62 l0 -73 -37 1 c-30 1 -40 6
-50 28 -24 49 24 109 62 78 13 -10 15 -8 15 14 0 14 2 26 5 26 3 0 5 -33 5
-74z m230 53 c0 -16 4 -19 21 -14 43 14 75 -47 49 -96 -8 -14 -20 -18 -50 -17
l-40 1 0 74 c0 42 4 73 10 73 6 0 10 -9 10 -21z m561 14 c8 -56 6 -129 -4
-135 -24 -15 -66 -8 -77 12 -13 25 -3 26 22 3 15 -13 23 -15 36 -6 26 16 21
46 -8 54 l-25 7 23 7 c16 5 22 14 20 29 -4 27 -36 33 -53 9 -12 -15 -14 -15
-15 -2 0 9 3 19 7 22 9 9 73 9 74 0z m189 -66 l0 -73 -31 -2 c-41 -3 -59 13
-59 54 0 47 46 85 65 54 3 -5 -3 -10 -13 -10 -28 0 -45 -25 -38 -55 14 -54 69
-37 65 19 -3 44 0 86 6 86 3 0 5 -33 5 -73z m-1227 25 c-20 -5 -17 -79 5 -92
15 -10 15 -10 -3 -8 -16 3 -21 12 -23 51 -2 26 -7 47 -13 47 -5 0 -4 8 2 19
11 17 13 17 28 2 12 -12 13 -17 4 -19z m860 0 c-20 -5 -17 -79 5 -91 15 -9 15
-10 -5 -11 -21 0 -23 5 -23 50 0 28 -5 50 -10 50 -6 0 -6 7 1 19 11 17 13 17
28 2 12 -12 13 -17 4 -19z m-1143 9 c0 -5 -9 -11 -20 -14 -16 -4 -20 -14 -20
-51 0 -25 -4 -46 -10 -46 -5 0 -10 24 -10 54 0 57 -2 55 53 65 4 0 7 -3 7 -8z
m92 -8 c10 -9 18 -24 18 -35 0 -14 -8 -18 -40 -18 -43 0 -50 -9 -24 -31 12
-10 20 -10 35 -1 26 16 34 15 19 -3 -7 -8 -23 -15 -36 -15 -50 0 -72 62 -34
100 24 24 38 25 62 3z m116 5 c7 -7 12 -33 12 -58 0 -45 -1 -46 -34 -48 -64
-5 -73 52 -10 64 44 8 38 30 -7 27 -32 -1 -33 0 -15 13 24 17 38 18 54 2z
m184 -5 c10 -9 18 -24 18 -35 0 -14 -8 -18 -40 -18 -43 0 -50 -9 -24 -31 12
-10 20 -10 35 -1 26 16 34 15 19 -3 -7 -8 -23 -15 -36 -15 -50 0 -72 62 -34
100 24 24 38 25 62 3z m302 1 c10 -9 16 -33 16 -59 l0 -43 -42 2 c-39 1 -43 4
-43 26 0 19 7 26 33 34 47 13 43 40 -5 33 -35 -6 -36 -5 -19 8 25 19 41 19 60
-1z m250 0 c19 -18 21 -75 4 -92 -17 -17 -54 -15 -72 4 -22 21 -20 60 4 84 24
24 43 25 64 4z m674 4 c7 -7 12 -33 12 -58 0 -45 -1 -46 -34 -48 -64 -5 -73
52 -10 64 44 8 38 30 -7 27 -32 -1 -33 0 -15 13 24 17 38 18 54 2z m216 6 c25
-9 19 -20 -11 -19 -37 0 -40 -22 -4 -30 16 -3 32 -13 35 -22 14 -36 -48 -60
-74 -28 -14 17 0 21 17 4 13 -13 43 -5 43 11 0 6 -13 16 -30 21 -22 8 -30 17
-30 34 0 29 22 41 54 29z m180 -10 c10 -9 16 -33 16 -59 l0 -43 -42 2 c-39 1
-43 4 -43 26 0 19 7 26 33 34 47 13 43 40 -5 33 -35 -6 -36 -5 -19 8 25 19 41
19 60 -1z m111 6 c4 -6 11 -8 16 -5 5 4 9 -23 9 -64 0 -59 -3 -72 -19 -81 -26
-13 -33 -13 -56 4 -17 12 -15 14 20 12 30 -1 40 3 43 16 3 15 -2 17 -25 12
-36 -7 -56 14 -56 58 0 42 50 77 68 48z m139 -6 c19 -18 21 -75 4 -92 -17 -17
-54 -15 -72 4 -22 21 -20 60 4 84 24 24 43 25 64 4z m-1252 -41 c3 -40 6 -48
23 -48 17 0 20 8 23 48 4 64 22 60 22 -6 0 -52 -1 -53 -31 -55 -44 -3 -59 13
-59 64 0 59 18 56 22 -3z m673 5 l18 -43 13 30 c7 17 13 36 14 43 0 10 20 19
20 8 0 -10 -44 -122 -53 -133 -5 -7 -17 -13 -25 -13 -13 0 -12 3 4 14 19 14
19 15 -3 75 -24 69 -15 84 12 19z m-1745 -1223 c0 -10 -10 -15 -30 -15 l-30 0
0 -85 c0 -69 -3 -85 -15 -85 -12 0 -15 16 -15 85 l0 85 -35 0 c-33 0 -43 8
-28 23 3 4 39 7 80 7 58 0 73 -3 73 -15z m163 -5 c28 -23 43 -74 33 -115 -11
-43 -41 -65 -90 -65 -59 0 -86 32 -86 102 0 39 5 54 25 73 30 31 82 33 118 5z
m185 4 c15 -10 22 -25 22 -49 0 -43 -22 -65 -66 -65 -32 0 -34 -2 -34 -35 0
-28 -4 -35 -20 -35 -19 0 -20 7 -20 100 l0 100 48 0 c27 0 57 -7 70 -16z m92
-84 c0 -93 -1 -100 -20 -100 -19 0 -20 7 -20 100 0 93 1 100 20 100 19 0 20
-7 20 -100z m165 94 c8 -4 22 -19 31 -35 13 -26 13 -29 -1 -29 -8 0 -24 9 -35
20 -24 24 -47 25 -72 3 -20 -18 -24 -73 -8 -104 14 -26 66 -26 82 1 15 24 38
26 38 3 0 -53 -99 -75 -140 -31 -75 81 4 211 105 172z m215 -94 c0 -82 -3
-100 -15 -100 -12 0 -15 16 -15 80 0 73 -9 97 -25 70 -9 -15 -25 -12 -25 4 0
18 38 46 62 46 16 0 18 -11 18 -100z m-1505 10 l59 -60 -62 0 -62 0 0 60 c0
33 1 60 3 60 1 0 29 -27 62 -60z m-20 -200 c0 -12 -20 -16 -109 -18 -106 -3
-136 4 -121 27 4 8 44 11 118 9 92 -2 112 -6 112 -18z m0 -50 c0 -12 -20 -16
-109 -18 -106 -3 -136 4 -121 27 4 8 44 11 118 9 92 -2 112 -6 112 -18z m0
-50 c0 -12 -20 -16 -109 -18 -106 -3 -136 4 -121 27 4 8 44 11 118 9 92 -2
112 -6 112 -18z m-100 -50 c0 -11 -15 -16 -59 -18 -59 -3 -84 7 -71 28 11 18
130 9 130 -10z m763 -22 c7 -7 12 -19 12 -27 0 -11 -5 -9 -16 7 -18 26 -56 29
-75 6 -20 -24 -16 -84 6 -100 26 -19 41 -18 66 7 26 26 34 20 13 -9 -21 -30
-77 -30 -98 0 -21 29 -20 87 1 110 18 20 73 24 91 6z m632 -62 l0 -73 -37 1
c-30 1 -40 6 -50 28 -24 49 24 109 62 78 13 -10 15 -8 15 14 0 14 2 26 5 26 3
0 5 -33 5 -74z m230 53 c0 -16 4 -19 21 -14 43 14 75 -47 49 -96 -8 -14 -20
-18 -50 -17 l-40 1 0 74 c0 42 4 73 10 73 6 0 10 -9 10 -21z m561 14 c8 -56 6
-129 -4 -135 -24 -15 -66 -8 -77 12 -13 25 -3 26 22 3 15 -13 23 -15 36 -6 26
16 21 46 -8 54 l-25 7 23 7 c16 5 22 14 20 29 -4 27 -36 33 -53 9 -12 -15 -14
-15 -15 -2 0 9 3 19 7 22 9 9 73 9 74 0z m189 -66 l0 -73 -31 -2 c-41 -3 -59
13 -59 54 0 47 46 85 65 54 3 -5 -3 -10 -13 -10 -28 0 -45 -25 -38 -55 14 -54
69 -37 65 19 -3 44 0 86 6 86 3 0 5 -33 5 -73z m-1227 25 c-20 -5 -17 -79 5
-92 15 -10 15 -10 -3 -8 -16 3 -21 12 -23 51 -2 26 -7 47 -13 47 -5 0 -4 8 2
19 11 17 13 17 28 2 12 -12 13 -17 4 -19z m860 0 c-20 -5 -17 -79 5 -91 15 -9
15 -10 -5 -11 -21 0 -23 5 -23 50 0 28 -5 50 -10 50 -6 0 -6 7 1 19 11 17 13
17 28 2 12 -12 13 -17 4 -19z m-1143 9 c0 -5 -9 -11 -20 -14 -16 -4 -20 -14
-20 -51 0 -25 -4 -46 -10 -46 -5 0 -10 24 -10 54 0 57 -2 55 53 65 4 0 7 -3 7
-8z m92 -8 c10 -9 18 -24 18 -35 0 -14 -8 -18 -40 -18 -43 0 -50 -9 -24 -31
12 -10 20 -10 35 -1 26 16 34 15 19 -3 -7 -8 -23 -15 -36 -15 -50 0 -72 62
-34 100 24 24 38 25 62 3z m116 5 c7 -7 12 -33 12 -58 0 -45 -1 -46 -34 -48
-64 -5 -73 52 -10 64 44 8 38 30 -7 27 -32 -1 -33 0 -15 13 24 17 38 18 54 2z
m184 -5 c10 -9 18 -24 18 -35 0 -14 -8 -18 -40 -18 -43 0 -50 -9 -24 -31 12
-10 20 -10 35 -1 26 16 34 15 19 -3 -7 -8 -23 -15 -36 -15 -50 0 -72 62 -34
100 24 24 38 25 62 3z m302 1 c10 -9 16 -33 16 -59 l0 -43 -42 2 c-39 1 -43 4
-43 26 0 19 7 26 33 34 47 13 43 40 -5 33 -35 -6 -36 -5 -19 8 25 19 41 19 60
-1z m250 0 c19 -18 21 -75 4 -92 -17 -17 -54 -15 -72 4 -22 21 -20 60 4 84 24
24 43 25 64 4z m674 4 c7 -7 12 -33 12 -58 0 -45 -1 -46 -34 -48 -64 -5 -73
52 -10 64 44 8 38 30 -7 27 -32 -1 -33 0 -15 13 24 17 38 18 54 2z m216 6 c25
-9 19 -20 -11 -19 -37 0 -40 -22 -4 -30 16 -3 32 -13 35 -22 14 -36 -48 -60
-74 -28 -14 17 0 21 17 4 13 -13 43 -5 43 11 0 6 -13 16 -30 21 -22 8 -30 17
-30 34 0 29 22 41 54 29z m180 -10 c10 -9 16 -33 16 -59 l0 -43 -42 2 c-39 1
-43 4 -43 26 0 19 7 26 33 34 47 13 43 40 -5 33 -35 -6 -36 -5 -19 8 25 19 41
19 60 -1z m111 6 c4 -6 11 -8 16 -5 5 4 9 -23 9 -64 0 -59 -3 -72 -19 -81 -26
-13 -33 -13 -56 4 -17 12 -15 14 20 12 30 -1 40 3 43 16 3 15 -2 17 -25 12
-36 -7 -56 14 -56 58 0 42 50 77 68 48z m139 -6 c19 -18 21 -75 4 -92 -17 -17
-54 -15 -72 4 -22 21 -20 60 4 84 24 24 43 25 64 4z m-1252 -41 c3 -40 6 -48
23 -48 17 0 20 8 23 48 4 64 22 60 22 -6 0 -52 -1 -53 -31 -55 -44 -3 -59 13
-59 64 0 59 18 56 22 -3z m673 5 l18 -43 13 30 c7 17 13 36 14 43 0 10 20 19
20 8 0 -10 -44 -122 -53 -133 -5 -7 -17 -13 -25 -13 -13 0 -12 3 4 14 19 14
19 15 -3 75 -24 69 -15 84 12 19z"/>
<path d="M499 8310 c-27 -22 -22 -25 15 -10 14 5 26 14 26 20 0 16 -15 12 -41
-10z"/>
<path d="M1350 8280 c0 -66 1 -70 23 -70 43 0 67 27 67 75 0 48 -16 65 -64 65
-25 0 -26 -2 -26 -70z"/>
<path d="M1186 8294 c-22 -22 -21 -24 19 -24 37 0 49 22 19 34 -21 8 -20 8
-38 -10z"/>
<path d="M1561 8296 c-7 -8 -11 -30 -9 -48 2 -26 8 -34 27 -36 28 -4 41 12 41
50 0 17 -7 31 -19 38 -25 13 -26 13 -40 -4z"/>
<path d="M4261 6726 c-6 -24 -13 -51 -17 -60 -5 -13 1 -16 34 -16 l41 0 -21
60 c-11 33 -21 60 -23 60 -1 0 -8 -20 -14 -44z"/>
<path d="M4856 6707 c-9 -7 -20 -31 -23 -54 -4 -33 -1 -45 16 -62 42 -42 81
-15 81 54 0 34 -5 47 -22 59 -27 19 -30 19 -52 3z"/>
<path d="M5117 6702 c-22 -24 -22 -95 -1 -116 36 -37 84 -2 84 61 0 34 -29 73
-53 73 -8 0 -21 -8 -30 -18z"/>
<path d="M6247 6702 c-26 -28 -21 -32 33 -32 52 0 60 8 34 34 -21 21 -47 20
-67 -2z"/>
<path d="M12760 6640 c-8 -5 -11 -12 -8 -16 10 -9 38 3 38 16 0 12 -10 13 -30
0z"/>
<path d="M13274 6676 c-8 -21 -1 -49 13 -53 15 -5 35 31 27 51 -8 20 -33 21
-40 2z"/>
<path d="M13865 6669 c-9 -27 19 -59 36 -42 15 15 7 57 -13 61 -10 2 -19 -6
-23 -19z"/>
<path d="M13090 6640 c-8 -5 -11 -12 -8 -16 10 -9 38 3 38 16 0 12 -10 13 -30
0z"/>
<path d="M13450 6640 c-8 -5 -11 -12 -8 -16 10 -9 38 3 38 16 0 12 -10 13 -30
0z"/>
<path d="M13995 6669 c-9 -27 19 -59 36 -42 15 15 7 57 -13 61 -10 2 -19 -6
-23 -19z"/>
<path d="M14560 6680 c0 -5 9 -10 21 -10 11 0 17 5 14 10 -3 6 -13 10 -21 10
-8 0 -14 -4 -14 -10z"/>
<path d="M5991 5267 c-15 -39 -14 -47 9 -47 21 0 23 9 10 50 l-7 25 -12 -28z"/>
<path d="M6184 4813 c-8 -31 6 -58 32 -58 25 0 42 48 24 69 -20 25 -49 20 -56
-11z"/>
<path d="M6494 4827 c-3 -9 -4 -28 -2 -44 2 -22 8 -28 28 -28 23 0 25 4 25 40
0 34 -3 40 -23 43 -13 2 -24 -3 -28 -11z"/>
<path d="M5767 4834 c-15 -15 -6 -24 24 -24 20 0 29 4 27 13 -5 14 -40 21 -51
11z"/>
<path d="M5903 4790 c-26 -11 -30 -28 -8 -36 18 -7 45 12 45 32 0 16 -6 16
-37 4z"/>
<path d="M6067 4834 c-15 -15 -6 -24 24 -24 20 0 29 4 27 13 -5 14 -40 21 -51
11z"/>
<path d="M6390 4790 c-14 -3 -25 -12 -25 -20 0 -21 44 -25 51 -6 9 24 1 33
-26 26z"/>
<path d="M6617 4833 c-13 -12 -7 -60 8 -73 8 -7 21 -10 30 -7 20 8 30 54 15
72 -13 16 -42 20 -53 8z"/>
<path d="M7313 4790 c-26 -11 -30 -28 -8 -36 18 -7 45 12 45 32 0 16 -6 16
-37 4z"/>
<path d="M7710 4790 c-14 -3 -25 -12 -25 -20 0 -21 44 -25 51 -6 9 24 1 33
-26 26z"/>
<path d="M7806 4824 c-18 -47 17 -90 48 -58 28 28 16 74 -19 74 -13 0 -26 -7
-29 -16z"/>
<path d="M7937 4833 c-13 -12 -7 -60 8 -73 8 -7 21 -10 30 -7 20 8 30 54 15
72 -13 16 -42 20 -53 8z"/>
<path d="M5740 3550 c-41 -41 -14 -120 40 -120 34 0 50 23 50 73 0 59 -51 86
-90 47z"/>
<path d="M5940 3535 c0 -32 2 -35 29 -35 21 0 32 6 36 20 9 27 -11 50 -41 50
-21 0 -24 -5 -24 -35z"/>
<path d="M6184 3073 c-8 -31 6 -58 32 -58 25 0 42 48 24 69 -20 25 -49 20 -56
-11z"/>
<path d="M6494 3087 c-3 -9 -4 -28 -2 -44 2 -22 8 -28 28 -28 23 0 25 4 25 40
0 34 -3 40 -23 43 -13 2 -24 -3 -28 -11z"/>
<path d="M5767 3094 c-15 -15 -6 -24 24 -24 20 0 29 4 27 13 -5 14 -40 21 -51
11z"/>
<path d="M5903 3050 c-26 -11 -30 -28 -8 -36 18 -7 45 12 45 32 0 16 -6 16
-37 4z"/>
<path d="M6067 3094 c-15 -15 -6 -24 24 -24 20 0 29 4 27 13 -5 14 -40 21 -51
11z"/>
<path d="M6390 3050 c-14 -3 -25 -12 -25 -20 0 -21 44 -25 51 -6 9 24 1 33
-26 26z"/>
<path d="M6617 3093 c-13 -12 -7 -60 8 -73 8 -7 21 -10 30 -7 20 8 30 54 15
72 -13 16 -42 20 -53 8z"/>
<path d="M7313 3050 c-26 -11 -30 -28 -8 -36 18 -7 45 12 45 32 0 16 -6 16
-37 4z"/>
<path d="M7710 3050 c-14 -3 -25 -12 -25 -20 0 -21 44 -25 51 -6 9 24 1 33
-26 26z"/>
<path d="M7806 3084 c-18 -47 17 -90 48 -58 28 28 16 74 -19 74 -13 0 -26 -7
-29 -16z"/>
<path d="M7937 3093 c-13 -12 -7 -60 8 -73 8 -7 21 -10 30 -7 20 8 30 54 15
72 -13 16 -42 20 -53 8z"/>
</g>
</svg>
